<?xml version="1.0" encoding="UTF-8" standalone="no"?>
<!-- Uploaded to: SVG Repo, www.svgrepo.com, Generator: SVG Repo Mixer Tools -->

<svg
   fill="#000000"
   width="800px"
   height="800px"
   viewBox="0 0 24 24"
   version="1.1"
   id="svg4"
   sodipodi:docname="addEditBib.svg"
   inkscape:version="1.1.2 (0a00cf5339, 2022-02-04)"
   xmlns:inkscape="http://www.inkscape.org/namespaces/inkscape"
   xmlns:sodipodi="http://sodipodi.sourceforge.net/DTD/sodipodi-0.dtd"
   xmlns="http://www.w3.org/2000/svg"
   xmlns:svg="http://www.w3.org/2000/svg">
  <defs
     id="defs8" />
  <sodipodi:namedview
     id="namedview6"
     pagecolor="#ffffff"
     bordercolor="#666666"
     borderopacity="1.0"
     inkscape:pageshadow="2"
     inkscape:pageopacity="0.0"
     inkscape:pagecheckerboard="0"
     showgrid="false"
     inkscape:zoom="0.30935922"
     inkscape:cx="-698.21744"
     inkscape:cy="496.18693"
     inkscape:window-width="2160"
     inkscape:window-height="1377"
     inkscape:window-x="0"
     inkscape:window-y="32"
     inkscape:window-maximized="1"
     inkscape:current-layer="svg4" />
  <path
     d="M18,6 L20.5,6 C20.7761424,6 21,6.22385763 21,6.5 C21,6.77614237 20.7761424,7 20.5,7 L18,7 L18,9.5 C18,9.77614237 17.7761424,10 17.5,10 C17.2238576,10 17,9.77614237 17,9.5 L17,7 L14.5,7 C14.2238576,7 14,6.77614237 14,6.5 C14,6.22385763 14.2238576,6 14.5,6 L17,6 L17,3.5 C17,3.22385763 17.2238576,3 17.5,3 C17.7761424,3 18,3.22385763 18,3.5 L18,6 Z M20,11.5 C20,11.2238576 20.2238576,11 20.5,11 C20.7761424,11 21,11.2238576 21,11.5 L21,18.5 C21,19.8807119 19.8807119,21 18.5,21 L5.5,21 C4.11928813,21 3,19.8807119 3,18.5 L3,5.5 C3,4.11928813 4.11928813,3 5.5,3 L12.5,3 C12.7761424,3 13,3.22385763 13,3.5 C13,3.77614237 12.7761424,4 12.5,4 L5.5,4 C4.67157288,4 4,4.67157288 4,5.5 L4,18.5 C4,19.3284271 4.67157288,20 5.5,20 L18.5,20 C19.3284271,20 20,19.3284271 20,18.5 L20,11.5 Z"
     id="path2"
     style="fill:#800000" />
  <text
     xml:space="preserve"
     style="font-style:normal;font-weight:normal;font-size:12.5459px;line-height:1.25;font-family:sans-serif;fill:#2a7fff;fill-opacity:1;stroke:none;stroke-width:0.313647"
     x="5.414238"
     y="17.667805"
     id="text5751"><tspan
       sodipodi:role="line"
       id="tspan5749"
       style="fill:#2a7fff;stroke:none;stroke-width:0.313647"
       x="5.414238"
       y="17.667805">B</tspan></text>
</svg>
