<svg xmlns="http://www.w3.org/2000/svg" viewBox="0 0 24 24"><defs><style type="text/css">.skinbaseDark,.skinbaseLight,.skinthemeDark{fill-rule:evenodd;}.skinbaseDark,.skinbaseLight{opacity:0.8;}.skinbaseLight{fill:#838383;}.skinthemeDark{fill:#5789d9;}</style></defs><title>编辑文字</title><path class="skinbaseDark" d="M21,23H2a2,2,0,0,1-2-2V2A2,2,0,0,1,2,0H21a2,2,0,0,1,2,2V21A2,2,0,0,1,21,23ZM22,2a1,1,0,0,0-1-1H2A1,1,0,0,0,1,2V21a1,1,0,0,0,1,1H21a1,1,0,0,0,1-1Z"/><path class="skinbaseLight" d="M21.5,12h-3a.5.5,0,1,1,0-1h3a.5.5,0,1,1,0,1Zm-10,10a.50005.50005,0,0,1-.5-.5v-3a.5.5,0,1,1,1,0v3A.50005.50005,0,0,1,11.5,22Zm0-19a.50005.50005,0,0,1-.5-.5v-1a.5.5,0,1,1,1,0v1A.50005.50005,0,0,1,11.5,3Zm-7,9h-3a.5.5,0,1,1,0-1h3a.5.5,0,1,1,0,1Z"/><path class="skinthemeDark" d="M17.9993,18.9997H16.9367L15.27,14H7.7281L6.0617,18.9997H4.9991L8.9988,6.9993h0a2.92165,2.92165,0,0,1,2.5-2,2.75159,2.75159,0,0,1,2.5,2h0ZM12.9363,6.9993a1.2901,1.2901,0,0,0-1.4375-.9375,1.39754,1.39754,0,0,0-1.4375.9375h0L8.0613,13h6.8753L12.9362,6.9993h.0001Z"/></svg>