<?xml version="1.0" encoding="UTF-8" standalone="no"?>
<svg
   viewBox="0 0 800 800"
   version="1.1"
   id="svg14"
   sodipodi:docname="pref.svg"
   inkscape:version="1.1.2 (0a00cf5339, 2022-02-04)"
   width="800"
   height="800"
   xmlns:inkscape="http://www.inkscape.org/namespaces/inkscape"
   xmlns:sodipodi="http://sodipodi.sourceforge.net/DTD/sodipodi-0.dtd"
   xmlns="http://www.w3.org/2000/svg"
   xmlns:svg="http://www.w3.org/2000/svg"
   xmlns:rdf="http://www.w3.org/1999/02/22-rdf-syntax-ns#"
   xmlns:cc="http://creativecommons.org/ns#"
   xmlns:dc="http://purl.org/dc/elements/1.1/">
  <sodipodi:namedview
     id="namedview16"
     pagecolor="#ffffff"
     bordercolor="#666666"
     borderopacity="1.0"
     inkscape:pageshadow="2"
     inkscape:pageopacity="0.0"
     inkscape:pagecheckerboard="0"
     showgrid="false"
     inkscape:zoom="0.45572917"
     inkscape:cx="-405.94285"
     inkscape:cy="279.77142"
     inkscape:window-width="2160"
     inkscape:window-height="1377"
     inkscape:window-x="0"
     inkscape:window-y="32"
     inkscape:window-maximized="1"
     inkscape:current-layer="svg14"
     width="800px" />
  <defs
     id="defs4">
    <style
       type="text/css"
       id="style2">.skinbaseDark,.skinbaseLight,.skinthemeDark{fill-rule:evenodd;}.skinbaseDark,.skinbaseLight{opacity:0.8;}.skinbaseLight{fill:#838383;}.skinthemeDark{fill:#5789d9;}</style>
  </defs>
  <title
     id="title6">编辑文字</title>
  <path
     class="skinbaseDark"
     d="M 672.19992,718.77634 H 143.25703 A 55.678198,55.678198 0 0 1 87.578837,663.09813 V 134.15525 A 55.678198,55.678198 0 0 1 143.25703,78.477053 h 528.94289 a 55.678198,55.678198 0 0 1 55.67821,55.678197 v 528.94288 a 55.678198,55.678198 0 0 1 -55.67821,55.67821 z m 27.83909,-584.62109 a 27.8391,27.8391 0 0 0 -27.83909,-27.8391 H 143.25703 a 27.8391,27.8391 0 0 0 -27.8391,27.8391 v 528.94288 a 27.8391,27.8391 0 0 0 27.8391,27.83909 h 528.94289 a 27.8391,27.8391 0 0 0 27.83909,-27.83909 z"
     id="path8"
     style="fill:#800000;stroke-width:27.8391" />
  <path
     class="skinbaseLight"
     d="m 686.11947,412.54625 h -83.51729 a 13.919554,13.919554 0 1 1 0,-27.8391 h 83.51729 a 13.919554,13.919554 0 1 1 0,27.8391 z m -278.391,278.39097 a 13.920941,13.920941 0 0 1 -13.91953,-13.91954 v -83.51729 a 13.919554,13.919554 0 1 1 27.8391,0 v 83.51729 a 13.920941,13.920941 0 0 1 -13.91957,13.91954 z m 0,-528.94287 A 13.920941,13.920941 0 0 1 393.80894,148.0748 v -27.8391 a 13.919554,13.919554 0 1 1 27.8391,0 v 27.8391 a 13.920941,13.920941 0 0 1 -13.91957,13.91955 z m -194.87368,250.5519 h -83.5173 a 13.919554,13.919554 0 1 1 0,-27.8391 h 83.5173 a 13.919554,13.919554 0 1 1 0,27.8391 z"
     id="path10"
     style="stroke-width:27.8391" />
  <text
     xml:space="preserve"
     style="font-style:normal;font-weight:normal;font-size:455.495px;line-height:1.25;font-family:sans-serif;fill:#5599ff;fill-opacity:1;stroke:none;stroke-width:11.3873"
     x="289.15408"
     y="514.23816"
     id="text5401"
     transform="scale(0.95060531,1.0519613)"><tspan
       sodipodi:role="line"
       id="tspan5399"
       x="289.15408"
       y="514.23816"
       style="fill:#5599ff;stroke:none;stroke-width:11.3873">P</tspan></text>
  <metadata
     id="metadata826">
    <rdf:RDF>
      <cc:Work
         rdf:about="">
        <dc:title>编辑文字</dc:title>
      </cc:Work>
    </rdf:RDF>
  </metadata>
</svg>
