<?xml version="1.0" encoding="UTF-8" standalone="no"?>
<svg
   viewBox="0 0 800 800"
   version="1.1"
   id="svg913"
   sodipodi:docname="unlink.svg"
   inkscape:version="1.1.2 (0a00cf5339, 2022-02-04)"
   width="800"
   height="800"
   xmlns:inkscape="http://www.inkscape.org/namespaces/inkscape"
   xmlns:sodipodi="http://sodipodi.sourceforge.net/DTD/sodipodi-0.dtd"
   xmlns="http://www.w3.org/2000/svg"
   xmlns:svg="http://www.w3.org/2000/svg"
   xmlns:rdf="http://www.w3.org/1999/02/22-rdf-syntax-ns#"
   xmlns:cc="http://creativecommons.org/ns#"
   xmlns:dc="http://purl.org/dc/elements/1.1/">
  <sodipodi:namedview
     id="namedview915"
     pagecolor="#ffffff"
     bordercolor="#666666"
     borderopacity="1.0"
     inkscape:pageshadow="2"
     inkscape:pageopacity="0.0"
     inkscape:pagecheckerboard="0"
     showgrid="false"
     inkscape:zoom="0.64449838"
     inkscape:cx="-282.39016"
     inkscape:cy="95.423049"
     inkscape:window-width="2160"
     inkscape:window-height="1377"
     inkscape:window-x="0"
     inkscape:window-y="32"
     inkscape:window-maximized="1"
     inkscape:current-layer="svg913" />
  <defs
     id="defs905">
    <style
       type="text/css"
       id="style903">.skinbaseDark,.skinthemeDark{fill-rule:evenodd;}.skinbaseDark{opacity:0.8;}.skinthemeDark{fill:#5789d9;}</style>
  </defs>
  <title
     id="title907">艺术字大小</title>
  <path
     class="skinthemeDark"
     d="m 742.75546,673.38487 v 29.81975 a 29.819751,29.819751 0 0 1 -29.81975,29.81975 H 683.11596 A 29.819751,29.819751 0 0 1 653.29621,703.20462 H 146.36045 A 29.819751,29.819751 0 0 1 116.5407,733.02437 H 86.720949 A 29.819751,29.819751 0 0 1 56.901198,703.20462 V 673.38487 A 29.819751,29.819751 0 0 1 86.720949,643.56512 V 166.44911 A 29.819751,29.819751 0 0 1 56.901198,136.62936 V 106.80961 A 29.819751,29.819751 0 0 1 86.720949,76.989861 H 116.5407 a 29.819751,29.819751 0 0 1 29.81975,29.819749 h 506.93576 a 29.819751,29.819751 0 0 1 29.81975,-29.819749 h 29.81975 a 29.819751,29.819751 0 0 1 29.81975,29.819749 v 29.81975 a 29.819751,29.819751 0 0 1 -29.81975,29.81975 v 477.11601 a 29.819751,29.819751 0 0 1 29.81975,29.81975 z M 86.720949,691.27672 a 11.9279,11.9279 0 0 0 11.9279,11.9279 h 5.963951 a 11.9279,11.9279 0 0 0 11.9279,-11.9279 v -5.96395 a 11.9279,11.9279 0 0 0 -11.9279,-11.9279 h -5.963951 a 11.9279,11.9279 0 0 0 -11.9279,11.9279 z M 116.5407,118.73751 a 11.9279,11.9279 0 0 0 -11.9279,-11.9279 h -5.963951 a 11.9279,11.9279 0 0 0 -11.9279,11.9279 v 5.96395 a 11.9279,11.9279 0 0 0 11.9279,11.9279 h 5.963951 a 11.9279,11.9279 0 0 0 11.9279,-11.9279 z m 536.75551,17.89185 H 146.36045 a 29.819751,29.819751 0 0 1 -29.81975,29.81975 v 477.11601 a 29.819751,29.819751 0 0 1 29.81975,29.81975 h 506.93576 a 29.819751,29.819751 0 0 1 29.81975,-29.81975 V 166.44911 a 29.819751,29.819751 0 0 1 -29.81975,-29.81975 z m 59.6395,-17.89185 a 11.9279,11.9279 0 0 0 -11.9279,-11.9279 h -5.96395 a 11.9279,11.9279 0 0 0 -11.9279,11.9279 v 5.96395 a 11.9279,11.9279 0 0 0 11.9279,11.9279 h 5.96395 a 11.9279,11.9279 0 0 0 11.9279,-11.9279 z m -11.9279,554.64736 h -5.96395 a 11.9279,11.9279 0 0 0 -11.9279,11.9279 v 5.96395 a 11.9279,11.9279 0 0 0 11.9279,11.9279 h 5.96395 a 11.9279,11.9279 0 0 0 11.9279,-11.9279 v -5.96395 a 11.9279,11.9279 0 0 0 -11.9279,-11.9279 z"
     id="path911"
     style="fill:#800000;stroke-width:29.8197" />
  <g
     id="XMLID_86_"
     transform="matrix(1.1910465,0,0,1.1910465,207.12998,201.01136)"
     style="fill:#666666">
    <path
       id="XMLID_87_"
       d="m 206.342,275.032 c -8.284,0 -15,6.716 -15,15 v 21.124 c 0,8.284 6.716,15 15,15 8.284,0 15,-6.716 15,-15 v -21.124 c 0,-8.284 -6.716,-15 -15,-15 z"
       style="fill:#666666" />
    <path
       id="XMLID_88_"
       d="m 311.158,191.343 -21.125,-10e-4 c -0.001,0 0,0 -0.001,0 -8.283,0 -15,6.716 -15,14.999 0,8.284 6.715,15.001 14.999,15.001 l 21.125,10e-4 c 10e-4,0 10e-4,0 10e-4,0 8.283,0 15,-6.716 15,-14.999 0,-8.284 -6.715,-15.001 -14.999,-15.001 z"
       style="fill:#666666" />
    <path
       id="XMLID_89_"
       d="m 276.127,254.913 c -5.858,-5.858 -15.355,-5.857 -21.214,-0.001 -5.857,5.858 -5.858,15.355 -0.001,21.214 l 14.938,14.938 c 2.93,2.93 6.768,4.394 10.607,4.394 3.838,0 7.678,-1.465 10.607,-4.393 5.857,-5.858 5.858,-15.355 10e-4,-21.214 z"
       style="fill:#666666" />
    <path
       id="XMLID_90_"
       d="m 119.813,51.124 c 8.284,0 15,-6.716 15,-15 V 15 c 0,-8.284 -6.716,-15 -15,-15 -8.284,0 -15,6.716 -15,15 v 21.124 c 0,8.284 6.716,15 15,15 z"
       style="fill:#666666" />
    <path
       id="XMLID_91_"
       d="m 36.124,134.815 c 8.284,0 15,-6.716 15,-14.999 0,-8.284 -6.715,-15.001 -15,-15.001 L 15,104.814 v 0 c -8.284,0 -15,6.716 -15,14.999 0,8.284 6.715,15.001 15,15.001 l 21.124,0.001 c 0,0 0,0 0,0 z"
       style="fill:#666666" />
    <path
       id="XMLID_92_"
       d="m 50.029,71.243 c 2.929,2.93 6.768,4.394 10.607,4.394 3.838,0 7.678,-1.465 10.607,-4.393 5.858,-5.858 5.858,-15.355 0,-21.214 L 56.305,35.092 C 50.448,29.234 40.95,29.235 35.092,35.091 c -5.858,5.858 -5.858,15.355 0,21.214 z"
       style="fill:#666666" />
    <path
       id="XMLID_93_"
       d="m 194.898,237.323 c 5.858,-5.857 5.858,-15.355 0,-21.213 -5.857,-5.857 -15.355,-5.857 -21.213,0 l -42.423,42.423 c -0.002,0.002 -0.003,0.003 -0.005,0.005 -17.543,17.545 -46.092,17.546 -63.638,0 -17.546,-17.546 -17.546,-46.095 0,-63.641 l 42.426,-42.426 c 5.858,-5.857 5.858,-15.355 0,-21.213 -5.857,-5.857 -15.355,-5.857 -21.213,0 l -42.426,42.426 c -29.243,29.242 -29.243,76.823 0,106.066 14.166,14.166 33,21.967 53.032,21.967 10e-4,0 0,0 10e-4,0 20.032,0 38.867,-7.802 53.032,-21.967 0.002,-0.002 0.003,-0.003 0.005,-0.005 z"
       style="fill:#666666" />
    <path
       id="XMLID_102_"
       d="M 279.75,46.405 C 265.586,32.24 246.752,24.438 226.719,24.438 c -0.001,0 0.001,0 -0.001,0 -20.032,0 -38.867,7.802 -53.032,21.967 l -0.001,10e-4 -0.001,10e-4 -42.425,42.426 c -5.858,5.857 -5.858,15.355 0,21.213 2.929,2.929 6.768,4.394 10.606,4.394 3.839,0 7.678,-1.465 10.607,-4.394 l 42.425,-42.426 0.001,-0.001 0.001,-0.001 c 8.499,-8.499 19.8,-13.18 31.82,-13.18 12.02,0 23.319,4.681 31.818,13.18 17.546,17.546 17.546,46.095 0,63.641 l -42.426,42.426 c -5.858,5.857 -5.858,15.355 0,21.213 2.929,2.929 6.768,4.394 10.607,4.394 3.839,0 7.678,-1.465 10.606,-4.394 l 42.426,-42.426 c 29.243,-29.242 29.243,-76.824 0,-106.067 z"
       style="fill:#666666" />
  </g>
  <metadata
     id="metadata832">
    <rdf:RDF>
      <cc:Work
         rdf:about="">
        <dc:title>艺术字大小</dc:title>
      </cc:Work>
    </rdf:RDF>
  </metadata>
</svg>
